<svg xmlns="http://www.w3.org/2000/svg">
  <symbol viewBox="0 0 176 480" id="bottle" xmlns="http://www.w3.org/2000/svg">
    <path d="M132.746 147.465A151.227 151.227 0 0 1 120 86.527V48a8 8 0 0 0 8-8V8a8 8 0 0 0-8-8H56a8 8 0 0 0-8 8v32a8 8 0 0 0 8 8v38.527a151.289 151.289 0 0 1-12.742 60.938L20.8 198.809A246.42 246.42 0 0 0 0 298.199V472a8 8 0 0 0 8 8h160a8 8 0 0 0 8-8V298.2a246.354 246.354 0 0 0-20.8-99.391l-22.454-51.344zM64 16h48v16H64V16zm96 448H16V298.2a230.593 230.593 0 0 1 19.457-92.993l22.457-51.344A167.166 167.166 0 0 0 72 86.527V48h32v38.527a167.105 167.105 0 0 0 14.09 67.336l22.453 51.344A230.593 230.593 0 0 1 160 298.199V464z"/>
    <path d="M104.566 202.832l6.657 15.2A202.65 202.65 0 0 1 120 242.245a8.003 8.003 0 0 0 9.93 5.434c4.242-1.239 6.672-5.688 5.43-9.926a219.303 219.303 0 0 0-9.512-26.129l-6.657-15.2a7.99 7.99 0 0 0-6.449-4.968 8.01 8.01 0 0 0-7.465 3.258 8.01 8.01 0 0 0-.742 8.11l.031.007zM94.25 179.2a7.996 7.996 0 0 0 7.336 4.8 7.85 7.85 0 0 0 3.2-.672c4.042-1.773 5.886-6.484 4.116-10.527l-5.476-12.543a8.003 8.003 0 0 0-10.434-3.906 7.995 7.995 0 0 0-4.222 10.304l5.48 12.543zM40 280a8 8 0 0 0-8 8v136a8 8 0 0 0 8 8h96a8 8 0 0 0 8-8V288a8 8 0 0 0-8-8H40zm88 136H48V296h80v120z"/>
  </symbol>
</svg>
